<?xml version="1.0" encoding="utf-8"?>
<!-- Generator: Adobe Illustrator 27.5.0, SVG Export Plug-In . SVG Version: 6.00 Build 0)  -->
<svg version="1.1" xmlns="http://www.w3.org/2000/svg" xmlns:xlink="http://www.w3.org/1999/xlink" x="0px" y="0px"
	 viewBox="0 0 500 500" style="enable-background:new 0 0 500 500;" xml:space="preserve">
<g id="Background_Complete">
	<g>
		<rect y="382.398" style="fill:#EBEBEB;" width="500" height="0.25"/>
		<rect x="435" y="398.494" style="fill:#EBEBEB;" width="14.901" height="0.25"/>
		<rect x="322.527" y="401.208" style="fill:#EBEBEB;" width="8.693" height="0.25"/>
		<rect x="396.586" y="389.208" style="fill:#EBEBEB;" width="34.192" height="0.25"/>
		<rect x="66.438" y="394.368" style="fill:#EBEBEB;" width="43.193" height="0.25"/>
		<rect x="118.534" y="394.368" style="fill:#EBEBEB;" width="15.577" height="0.25"/>
		<rect x="161.079" y="391.013" style="fill:#EBEBEB;" width="93.676" height="0.25"/>
		<path style="fill:#EBEBEB;" d="M237.014,337.8H43.915c-3.147,0-5.708-2.561-5.708-5.708V60.66c0-3.147,2.561-5.708,5.708-5.708
			h193.099c3.146,0,5.707,2.561,5.707,5.708v271.432C242.721,335.239,240.16,337.8,237.014,337.8z M43.915,55.203
			c-3.01,0-5.458,2.448-5.458,5.458v271.432c0,3.01,2.448,5.458,5.458,5.458h193.099c3.009,0,5.457-2.448,5.457-5.458V60.66
			c0-3.009-2.448-5.458-5.457-5.458H43.915z"/>
		<path style="fill:#EBEBEB;" d="M453.31,337.8H260.212c-3.147,0-5.707-2.561-5.707-5.708V60.66c0-3.147,2.561-5.708,5.707-5.708
			H453.31c3.148,0,5.708,2.561,5.708,5.708v271.432C459.019,335.239,456.458,337.8,453.31,337.8z M260.212,55.203
			c-3.009,0-5.457,2.448-5.457,5.458v271.432c0,3.01,2.448,5.458,5.457,5.458H453.31c3.01,0,5.458-2.448,5.458-5.458V60.66
			c0-3.009-2.448-5.458-5.458-5.458H260.212z"/>
	</g>
	<g>
		<g>
			<g>
				<g>
					
						<rect x="221.502" y="321" transform="matrix(-1 -1.224647e-16 1.224647e-16 -1 450.9002 696.0974)" style="fill:#F0F0F0;" width="7.897" height="54.098"/>
					
						<rect x="61.701" y="375.098" transform="matrix(-1 -1.224647e-16 1.224647e-16 -1 285.8853 757.496)" style="fill:#F0F0F0;" width="162.484" height="7.301"/>
					<rect x="56.487" y="321" style="fill:#F5F5F5;" width="165.015" height="54.098"/>
					<rect x="67.163" y="330.415" style="fill:#F0F0F0;" width="143.663" height="30.897"/>
					<path style="fill:#F5F5F5;" d="M104.042,334.557h69.904c1.303,0,2.368-1.066,2.368-2.368v-0.446
						c0-1.302-1.066-2.368-2.368-2.368h-69.904c-1.302,0-2.368,1.066-2.368,2.368v0.446
						C101.674,333.492,102.74,334.557,104.042,334.557z"/>
				</g>
				
					<rect x="52.868" y="316.167" transform="matrix(-1 -1.224647e-16 1.224647e-16 -1 274.3702 637.1665)" style="fill:#F0F0F0;" width="168.633" height="4.833"/>
				<rect x="221.502" y="316.167" style="fill:#E6E6E6;" width="11.692" height="4.833"/>
			</g>
		</g>
		<g>
			<g>
				
					<rect x="215.469" y="82.655" transform="matrix(-1 -1.224647e-16 1.224647e-16 -1 642.369 327.4603)" style="fill:#E6E6E6;" width="211.43" height="162.15"/>
				<path style="fill:#E6E6E6;" d="M195.675,76.347h243.181c1.013,0,1.834,0.821,1.834,1.834l0,0c0,1.013-0.821,1.834-1.834,1.834
					H195.675c-1.013,0-1.834-0.821-1.834-1.834l0,0C193.842,77.168,194.663,76.347,195.675,76.347z"/>
				
					<rect x="207.632" y="82.655" transform="matrix(-1 -1.224647e-16 1.224647e-16 -1 630.8691 327.4603)" style="fill:#F0F0F0;" width="215.606" height="162.15"/>
				<polygon style="fill:#E6E6E6;" points="215.469,244.805 426.9,244.805 426.9,250 210.07,250 				"/>
				<polygon style="fill:#F0F0F0;" points="194.575,244.805 410.181,244.805 404.781,250 189.175,250 				"/>
				
					<rect x="245.332" y="66.9" transform="matrix(-1.836970e-16 1 -1 -1.836970e-16 479.1649 -151.7045)" style="fill:#FAFAFA;" width="140.206" height="193.661"/>
				<polygon style="fill:#FFFFFF;" points="347.645,233.833 283.245,93.627 252.844,93.627 317.245,233.833 				"/>
				<polygon style="fill:#FFFFFF;" points="310.714,233.833 246.313,93.627 234.461,93.627 298.862,233.833 				"/>
				
					<rect x="149.198" y="163.033" transform="matrix(-1.836970e-16 1 -1 -1.836970e-16 383.0311 -55.5708)" style="fill:#E6E6E6;" width="140.206" height="1.393"/>
			</g>
			<g style="opacity:0.4;">
				
					<rect x="412.137" y="73.066" transform="matrix(-1 -1.224647e-16 1.224647e-16 -1 843.1588 279.9422)" style="fill:#F0F0F0;" width="18.884" height="133.811"/>
				
					<rect x="404.781" y="73.066" transform="matrix(-1 -1.224647e-16 1.224647e-16 -1 824.2747 279.9422)" style="fill:#E6E6E6;" width="14.712" height="133.811"/>
				
					<rect x="393.253" y="73.066" transform="matrix(-1 -1.224647e-16 1.224647e-16 -1 805.3904 279.9422)" style="fill:#F0F0F0;" width="18.884" height="133.811"/>
				
					<rect x="385.897" y="73.066" transform="matrix(-1 -1.224647e-16 1.224647e-16 -1 786.5061 279.9422)" style="fill:#E6E6E6;" width="14.712" height="133.811"/>
				
					<rect x="374.369" y="73.066" transform="matrix(-1 -1.224647e-16 1.224647e-16 -1 767.6219 279.9422)" style="fill:#F0F0F0;" width="18.884" height="133.811"/>
			</g>
			<g style="opacity:0.4;">
				
					<rect x="225.632" y="73.066" transform="matrix(-1 -1.224647e-16 1.224647e-16 -1 462.1469 279.9422)" style="fill:#F0F0F0;" width="10.882" height="133.811"/>
				
					<rect x="221.393" y="73.066" transform="matrix(-1 -1.224647e-16 1.224647e-16 -1 451.2645 279.9422)" style="fill:#E6E6E6;" width="8.478" height="133.811"/>
				
					<rect x="214.75" y="73.066" transform="matrix(-1 -1.224647e-16 1.224647e-16 -1 440.3822 279.9422)" style="fill:#F0F0F0;" width="10.882" height="133.811"/>
				
					<rect x="210.511" y="73.066" transform="matrix(-1 -1.224647e-16 1.224647e-16 -1 429.4999 279.9422)" style="fill:#E6E6E6;" width="8.478" height="133.811"/>
				
					<rect x="203.868" y="73.066" transform="matrix(-1 -1.224647e-16 1.224647e-16 -1 418.6175 279.9422)" style="fill:#F0F0F0;" width="10.882" height="133.811"/>
			</g>
		</g>
		<g>
			<rect x="70.334" y="73.146" style="fill:#F5F5F5;" width="86.867" height="221.962"/>
			
				<rect x="157.201" y="73.146" transform="matrix(-1 -1.224647e-16 1.224647e-16 -1 316.7862 368.2535)" style="fill:#E0E0E0;" width="2.384" height="221.962"/>
			
				<rect x="10.832" y="148.739" transform="matrix(-1.836970e-16 1 -1 -1.836970e-16 297.8942 70.3594)" style="fill:#FFFFFF;" width="205.871" height="70.775"/>
			<polygon style="fill:#FAFAFA;" points="103.293,287.062 126.775,81.191 140.334,81.191 116.852,287.062 			"/>
			<polygon style="fill:#FAFAFA;" points="91.552,287.062 115.034,81.191 121.813,81.191 98.332,287.062 			"/>
		</g>
	</g>
</g>
<g id="Background_Simple" style="display:none;">
	<g style="display:inline;">
		<path style="fill:#007F73;" d="M370.803,199.881c27.413,65.791-95.411,112.527-164.173,110.448
			c-86.997-2.631-140.614-43.697-147.621-115.723c-6.942-71.369,68.597-121.457,132.536-98.428
			c31.517,11.351,56.449,35.656,87.954,47.626C316.902,158.015,353.672,158.767,370.803,199.881z"/>
		<path style="opacity:0.9;fill:#FFFFFF;" d="M370.803,199.881c27.413,65.791-95.411,112.527-164.173,110.448
			c-86.997-2.631-140.614-43.697-147.621-115.723c-6.942-71.369,68.597-121.457,132.536-98.428
			c31.517,11.351,56.449,35.656,87.954,47.626C316.902,158.015,353.672,158.767,370.803,199.881z"/>
	</g>
</g>
<g id="Shadow_1_">
	<ellipse id="_x3C_Path_x3E__316_" style="fill:#F5F5F5;" cx="250" cy="416.238" rx="193.889" ry="11.323"/>
</g>
<g id="Smartphone">
	<g>
		<path style="fill:#263238;" d="M398.047,416.238H281.249c-6.952,0-12.264-5.688-11.806-12.639l16.295-247.07
			c0.458-6.952,6.521-12.639,13.473-12.639h116.798c6.952,0,12.264,5.688,11.806,12.639l-16.295,247.07
			C411.061,410.55,404.998,416.238,398.047,416.238z"/>
		<path style="fill:#263238;" d="M422.637,210.333h-14.135c-1.678,0-2.961-1.373-2.85-3.051l1.411-21.4
			c0.111-1.678,1.574-3.051,3.252-3.051h14.135c1.678,0,2.961,1.373,2.85,3.051l-1.411,21.4
			C425.779,208.96,424.315,210.333,422.637,210.333z"/>
		<rect x="324.611" y="140.389" style="fill:#007F73;" width="5.167" height="1"/>
		<rect x="299.444" y="140.389" style="fill:#007F73;" width="18.801" height="1"/>
		<path style="fill:#007F73;" d="M396.269,416.238H279.471c-6.952,0-12.264-5.688-11.806-12.639l16.295-247.07
			c0.458-6.952,6.521-12.639,13.473-12.639h116.798c6.952,0,12.264,5.688,11.806,12.639l-16.295,247.07
			C409.283,410.55,403.22,416.238,396.269,416.238z"/>
		<path style="fill:#FFFFFF;" d="M401.566,387.46H277.969c-3.951,0-6.971-3.233-6.71-7.184l14.186-215.092
			c0.261-3.951,3.707-7.184,7.658-7.184H416.7c3.951,0,6.971,3.233,6.71,7.184l-14.186,215.092
			C408.963,384.228,405.517,387.46,401.566,387.46z"/>
		<polygon style="fill:#FAFAFA;" points="378.525,158 353.981,158 294.529,387.46 319.072,387.46 		"/>
		<polygon style="fill:#FAFAFA;" points="400.141,158 387.869,158 328.416,387.46 340.688,387.46 		"/>
		<path style="fill:#F0F0F0;" d="M383.838,316.363l-26.674-100.915c-1.472-5.57-7.235-8.923-12.806-7.451l-63.115,16.683
			l-8.419,131.863l103.563-27.374C381.958,327.697,385.311,321.934,383.838,316.363z"/>
		<path style="opacity:0.2;fill:#FFFFFF;" d="M346.817,399.079c-0.285,4.316-4.015,7.816-8.331,7.816s-7.585-3.499-7.3-7.816
			c0.285-4.316,4.015-7.816,8.331-7.816S347.102,394.763,346.817,399.079z"/>
		<path style="opacity:0.2;fill:#FFFFFF;" d="M358.626,150.538c-0.118,1.785-1.66,3.232-3.446,3.232
			c-1.785,0-3.137-1.447-3.019-3.232c0.118-1.785,1.66-3.232,3.446-3.232C357.392,147.306,358.744,148.753,358.626,150.538z"/>
		<path style="opacity:0.2;fill:#FFFFFF;" d="M357.171,150.538c-0.065,0.982-0.913,1.778-1.895,1.778
			c-0.982,0-1.725-0.796-1.661-1.778c0.065-0.982,0.913-1.778,1.895-1.778C356.493,148.76,357.236,149.556,357.171,150.538z"/>
	</g>
</g>
<g id="Character_1_">
	<g>
		<path style="fill:#263238;" d="M169.319,138.057c3.73-9.167,2.388-20.333-8.186-22.833c-10.574-2.5-19.658,5.583-19.241,15.583
			s7.028,18.333-4.528,25.583c-11.555,7.25-10.305,29.096,12.028,24.881c22.333-4.214,10.25-15.697,10.25-15.697
			s-5.475,4.465-7.227-0.075C150.147,159.624,164.951,148.79,169.319,138.057z"/>
		<path style="fill:#263238;" d="M130.078,168.138l-0.488-0.109c1.491-6.664,3.827-8.387,6.3-10.211
			c2.366-1.746,4.813-3.55,6.704-10.109c0.89-3.087,0.323-6.505-0.226-9.81c-0.699-4.211-1.422-8.566,0.747-12.463l0.437,0.242
			c-2.084,3.746-1.376,8.013-0.691,12.139c0.558,3.36,1.134,6.835,0.213,10.031c-1.938,6.722-4.455,8.578-6.888,10.373
			C133.79,159.986,131.527,161.656,130.078,168.138z"/>
		<path style="fill:#FFC3BD;" d="M197.717,188.428c0.075,0.341,0.189,0.856,0.304,1.307l0.35,1.412
			c0.244,0.949,0.511,1.9,0.791,2.85c0.573,1.897,1.174,3.8,1.839,5.682c1.32,3.77,2.822,7.491,4.515,11.129l1.267,2.632
			c0.214,0.471,0.492,0.865,0.892,1.25c0.797,0.76,2.214,1.377,3.881,1.72c3.347,0.685,7.494,0.471,11.291-0.05l1.356,4.247
			c-1.101,0.495-2.1,0.856-3.177,1.206c-1.062,0.346-2.143,0.657-3.254,0.893c-2.217,0.488-4.538,0.774-7.02,0.649
			c-2.456-0.137-5.209-0.681-7.776-2.447c-1.271-0.868-2.402-2.075-3.219-3.419l-0.158-0.247l-0.101-0.176l-0.202-0.353
			l-0.404-0.706l-0.809-1.414c-2.096-3.804-3.925-7.757-5.503-11.819c-0.765-2.04-1.509-4.094-2.117-6.202
			c-0.307-1.054-0.602-2.113-0.876-3.187c-0.281-1.103-0.504-2.105-0.732-3.388L197.717,188.428z"/>
		<path style="fill:#007F73;" d="M189.958,174.453c10.091,4.5,10.028,19.617,10.028,19.617l-10.622,6.391
			c0,0-7.985-11.839-7.405-17.217C182.564,177.633,184.279,171.92,189.958,174.453z"/>
		<path style="opacity:0.2;" d="M191.586,187.352c-2.758-2.795-5.185,0.427-7.402,3.981c2.191,4.674,5.184,9.123,5.184,9.123
			l4.359-2.62C194.586,194.531,194.344,190.147,191.586,187.352z"/>
		<path style="fill:#FFC3BD;" d="M221.797,216.795l7.099-3.54l0.086,9.283c0,0-5.302,0.923-8.837-2.801L221.797,216.795z"/>
		<polygon style="fill:#FFC3BD;" points="236.533,214.896 235.311,221.8 228.982,222.537 228.896,213.255 		"/>
		<polygon style="fill:#FFC3BD;" points="156.813,408.858 165.592,409.697 169.683,389.273 160.903,388.435 		"/>
		<polygon style="fill:#FFC3BD;" points="99.236,384.909 106.382,390.114 118.29,373.214 111.144,368.009 		"/>
		<path style="fill:#263238;" d="M108.975,386.865l-5.889-8.057c-0.214-0.293-0.592-0.382-0.908-0.214l-7.046,3.741
			c-0.731,0.388-0.941,1.414-0.435,2.082c2.102,2.774,3.256,4.007,5.845,7.55c1.593,2.18,4.797,7.236,6.997,10.246
			c2.152,2.944,5.294,0.995,4.647-0.455c-2.899-6.504-2.983-10.316-2.777-13.372C109.447,387.835,109.288,387.293,108.975,386.865z"
			/>
		<path style="fill:#263238;" d="M166.751,407.046h-10.538c-0.383,0-0.729,0.266-0.832,0.641l-2.292,8.338
			c-0.238,0.865,0.399,1.66,1.286,1.668c3.714,0.034,5.474,0.017,10.108,0.017c2.851,0,10.227,0,14.164,0
			c3.851,0,4.656-3.893,3.063-4.246c-7.144-1.581-11.262-3.761-13.467-5.841C167.846,407.247,167.312,407.046,166.751,407.046z"/>
		<polygon style="opacity:0.2;" points="169.68,389.279 167.573,399.806 158.622,399.806 160.896,388.44 		"/>
		<polygon style="opacity:0.2;" points="111.14,368.013 118.288,373.22 112.147,381.928 104.998,376.721 		"/>
		<path style="fill:#007F73;" d="M194.165,182.417c-0.621,6.75-2.867,19.982-9.415,45.897l-35.944-3.109
			c1.73-13.499,2.542-22.232-0.838-47.774c-0.473-3.578,2.183-6.823,5.786-7.026c2.585-0.146,5.665-0.232,8.76-0.114
			c6.074,0.232,11.046,0.467,16.321,1.412c3.161,0.566,6.547,1.385,9.299,2.11C191.975,174.824,194.529,178.461,194.165,182.417z"/>
		<path style="opacity:0.2;" d="M148.89,184.91c0.461,4.022,0.796,7.57,1.024,10.769c3.308-0.29,5.743-3.92,6.025-11.512
			C154.649,180.497,151.699,181.833,148.89,184.91z"/>
		<path style="fill:#263238;" d="M184.75,228.314c0,0,12.161,53.797,4.043,91.724c-5.437,25.402-17.522,76.716-17.522,76.716
			l-15.331-0.394c0,0,7.32-53.851,10.389-75.028c5.25-36.226-7.899-95.295-7.899-95.295L184.75,228.314z"/>
		<path style="opacity:0.2;" d="M170.726,239.176l-7.666,12.09c1.95,12.537,3.891,28.217,4.386,43.306
			C178.227,275.273,173.123,249.394,170.726,239.176z"/>
		<polygon style="fill:#007F73;" points="173.432,397.549 154.493,397.065 155.588,391.246 174.912,392.163 		"/>
		<path style="fill:#263238;" d="M176.891,227.741c0,0-7.134,57.052-22.599,88.2c-12.491,25.158-38.625,65.148-38.625,65.148
			l-9.546-7.654c0,0,16.34-44.224,25.624-60.936c22.763-40.978,4.16-72.249,17.062-87.294L176.891,227.741z"/>
		<g>
			<g>
				<path style="fill:#007F73;" d="M374.993,292.521l-169.988,71.417c-5.312,2.232-11.485-0.289-13.716-5.601l-40.431-96.233
					c-2.232-5.312,0.289-11.484,5.601-13.716l169.988-71.417c5.312-2.232,11.484,0.288,13.716,5.601l40.43,96.233
					C382.825,284.116,380.305,290.289,374.993,292.521z"/>
				<path style="opacity:0.1;" d="M374.993,292.521l-169.988,71.417c-5.312,2.232-11.485-0.289-13.716-5.601l-40.431-96.233
					c-2.232-5.312,0.289-11.484,5.601-13.716l169.988-71.417c5.312-2.232,11.484,0.288,13.716,5.601l40.43,96.233
					C382.825,284.116,380.305,290.289,374.993,292.521z"/>
			</g>
			<path style="opacity:0.2;fill:#FFFFFF;" d="M214.269,270.104l-33.279,13.981c-2.558,1.075-5.529-0.139-6.604-2.696l-7.012-16.69
				c-1.074-2.557,0.139-5.529,2.697-6.604l33.279-13.981c2.558-1.074,5.529,0.139,6.604,2.697l7.012,16.69
				C218.04,266.058,216.827,269.029,214.269,270.104z"/>
			<path style="opacity:0.4;fill:#FFFFFF;" d="M230.638,319.483l-32.598,13.695c-0.961,0.404-2.077-0.052-2.481-1.013l-2.47-5.878
				c-0.404-0.961,0.052-2.077,1.013-2.48l32.598-13.695c0.961-0.404,2.077,0.052,2.48,1.013l2.47,5.878
				C232.055,317.963,231.599,319.08,230.638,319.483z"/>
			<path style="opacity:0.4;fill:#FFFFFF;" d="M273.059,301.661l-32.598,13.695c-0.961,0.404-2.077-0.052-2.481-1.013l-2.47-5.878
				c-0.404-0.961,0.052-2.077,1.013-2.48l32.598-13.695c0.961-0.404,2.077,0.052,2.48,1.013l2.47,5.878
				C274.475,300.141,274.019,301.257,273.059,301.661z"/>
			<path style="opacity:0.4;fill:#FFFFFF;" d="M315.479,283.839l-32.598,13.695c-0.961,0.404-2.077-0.052-2.481-1.013l-2.47-5.878
				c-0.404-0.961,0.052-2.077,1.013-2.48l32.598-13.695c0.961-0.404,2.077,0.052,2.48,1.013l2.47,5.878
				C316.896,282.319,316.44,283.435,315.479,283.839z"/>
			<path style="opacity:0.4;fill:#FFFFFF;" d="M357.9,266.017l-32.598,13.695c-0.961,0.404-2.077-0.052-2.48-1.013l-2.47-5.878
				c-0.404-0.961,0.052-2.077,1.013-2.48l32.598-13.695c0.961-0.404,2.077,0.052,2.48,1.013l2.47,5.878
				C359.316,264.497,358.86,265.613,357.9,266.017z"/>
		</g>
		<polygon style="fill:#007F73;" points="116.669,382.148 104.425,372.875 107.429,367.497 120.447,377.6 		"/>
		<g>
			<path style="fill:#007F73;" d="M148.45,223.049l-1.899,3.077c-0.147,0.239,0.126,0.519,0.542,0.555l37.695,3.26
				c0.324,0.028,0.606-0.107,0.644-0.309l0.602-3.189c0.042-0.221-0.223-0.434-0.577-0.465l-36.399-3.148
				C148.791,222.807,148.545,222.895,148.45,223.049z"/>
			<path style="opacity:0.5;" d="M148.45,223.049l-1.899,3.077c-0.147,0.239,0.126,0.519,0.542,0.555l37.695,3.26
				c0.324,0.028,0.606-0.107,0.644-0.309l0.602-3.189c0.042-0.221-0.223-0.434-0.577-0.465l-36.399-3.148
				C148.791,222.807,148.545,222.895,148.45,223.049z"/>
		</g>
		<path style="fill:#007F73;" d="M152.986,227.542l-0.975-0.084c-0.194-0.017-0.333-0.13-0.309-0.251l0.819-4.141
			c0.024-0.121,0.202-0.207,0.396-0.19l0.975,0.084c0.194,0.017,0.333,0.13,0.309,0.251l-0.819,4.141
			C153.359,227.473,153.18,227.559,152.986,227.542z"/>
		<path style="fill:#007F73;" d="M182.018,230.053l-0.975-0.084c-0.194-0.017-0.333-0.13-0.309-0.251l0.819-4.141
			c0.024-0.121,0.202-0.207,0.396-0.19l0.975,0.084c0.194,0.017,0.333,0.13,0.309,0.251l-0.819,4.141
			C182.391,229.984,182.212,230.07,182.018,230.053z"/>
		<path style="fill:#007F73;" d="M167.502,228.797l-0.975-0.084c-0.194-0.017-0.333-0.13-0.309-0.251l0.819-4.141
			c0.024-0.121,0.202-0.207,0.397-0.19l0.975,0.084c0.194,0.017,0.333,0.13,0.309,0.251l-0.819,4.141
			C167.875,228.729,167.696,228.814,167.502,228.797z"/>
		<path style="fill:#007F73;" d="M111.243,391.308c-0.114,0.014-0.23,0.009-0.347-0.014c-1.09-0.222-2.018-2.072-2.474-3.154
			c-0.027-0.064-0.013-0.138,0.035-0.189c0.049-0.05,0.122-0.067,0.188-0.043c0.339,0.127,3.32,1.271,3.549,2.363
			c0.035,0.167,0.024,0.415-0.221,0.654C111.743,391.148,111.498,391.276,111.243,391.308z M108.913,388.391
			c0.679,1.487,1.433,2.435,2.052,2.56c0.268,0.054,0.516-0.037,0.763-0.277c0.143-0.138,0.138-0.255,0.122-0.331
			C111.71,389.672,109.94,388.814,108.913,388.391z"/>
		<path style="fill:#007F73;" d="M111.334,388.531c-0.992,0.124-2.248-0.04-2.824-0.3c-0.056-0.026-0.095-0.08-0.102-0.142
			c-0.006-0.062,0.021-0.123,0.071-0.159c0.087-0.064,2.148-1.557,3.391-1.283c0.324,0.071,0.57,0.251,0.729,0.536
			c0.248,0.443,0.074,0.74-0.051,0.877C112.313,388.318,111.86,388.465,111.334,388.531z M108.965,388.023
			c0.997,0.285,2.863,0.303,3.327-0.199c0.077-0.084,0.147-0.214,0.003-0.47c-0.109-0.196-0.273-0.316-0.498-0.365
			C110.949,386.802,109.555,387.635,108.965,388.023z"/>
		<path style="fill:#007F73;" d="M171.427,408.75c-1.012,0-2.113-0.196-2.877-0.365c-0.073-0.017-0.128-0.078-0.136-0.152
			c-0.008-0.074,0.032-0.146,0.1-0.178c0.433-0.204,4.256-1.97,5.219-1.319c0.123,0.083,0.266,0.244,0.249,0.541
			c-0.024,0.411-0.199,0.743-0.521,0.986C172.984,408.625,172.234,408.75,171.427,408.75z M169.151,408.151
			c1.135,0.212,3.235,0.489,4.099-0.165c0.24-0.182,0.365-0.419,0.383-0.727c0.008-0.142-0.047-0.199-0.096-0.232
			C172.999,406.661,170.738,407.452,169.151,408.151z"/>
		<path style="fill:#007F73;" d="M168.588,408.389c-0.041,0-0.081-0.014-0.113-0.042c-0.05-0.042-0.072-0.109-0.058-0.173
			c0.036-0.161,0.904-3.931,2.979-3.69c0.52,0.062,0.662,0.32,0.689,0.525c0.13,0.96-2.281,2.895-3.432,3.366
			C168.633,408.385,168.611,408.389,168.588,408.389z M171.209,404.823c-1.326,0-2.098,2.194-2.354,3.073
			c1.245-0.652,2.968-2.225,2.885-2.839c-0.006-0.045-0.025-0.182-0.385-0.225C171.305,404.826,171.256,404.823,171.209,404.823z"/>
		<path style="fill:#FFC3BD;" d="M152.793,185.087l-0.535,0.751l-0.581,0.855c-0.39,0.581-0.778,1.17-1.15,1.776
			c-0.759,1.2-1.448,2.455-2.144,3.705c-1.379,2.51-2.598,5.115-3.641,7.782c-1.07,2.659-1.915,5.393-2.632,8.157l-0.469,1.956
			c-0.01-0.063-0.058,0.153,0.052,0.535c0.195,0.767,0.768,1.901,1.483,2.979c1.45,2.201,3.404,4.391,5.423,6.51
			c2.041,2.117,4.218,4.171,6.433,6.203c2.222,2.027,4.525,3.987,6.845,5.936c2.303,1.963,4.691,3.875,7.032,5.755l-2.497,3.693
			c-5.379-3.185-10.497-6.64-15.492-10.418c-2.502-1.88-4.948-3.857-7.315-5.998c-2.375-2.144-4.668-4.415-6.778-7.209
			c-1.039-1.424-2.074-2.948-2.799-5.114c-0.348-1.076-0.618-2.414-0.428-3.999l0.036-0.282l0.025-0.151l0.051-0.303l0.101-0.605
			l0.205-1.212c0.578-3.225,1.429-6.394,2.483-9.486c1.102-3.075,2.4-6.071,3.89-8.977c0.749-1.452,1.574-2.863,2.445-4.259
			c0.431-0.699,0.888-1.389,1.353-2.079l0.736-1.027c0.264-0.356,0.488-0.657,0.837-1.093L152.793,185.087z"/>
		<path style="fill:#007F73;" d="M151.899,170.987c-6.857,1.805-13.482,18.43-13.482,18.43l8.879,8.118
			c0,0,13.955-12.713,13.488-18.455C160.387,174.205,157.411,169.537,151.899,170.987z"/>
		<path style="opacity:0.2;" d="M162.513,170.04c0,0-1.41,0.349-3.819,0.349c-0.275,4.944,2.9,9.715,10.681,16.111
			c1.875-5.829,5.977-7.087,5.977-7.087L162.513,170.04z"/>
		<path style="opacity:0.2;" d="M178.83,171.574c0,0,0.909,0.129,3.085,0.625c1.446,2.234,3.325,9.105-0.942,13.968
			c-1.665-6.001-5.62-6.753-5.62-6.753L178.83,171.574z"/>
		<path style="fill:#FFFFFF;" d="M162.513,170.04c0,0-2.039,0.036-4.448,0.036c-1.446,2.234,3.543,8.417,11.323,14.813
			c1.875-5.829,5.964-5.475,5.964-5.475L162.513,170.04z"/>
		<path style="fill:#FFFFFF;" d="M178.83,171.574c0,0,0.909,0.129,3.085,0.625c1.446,2.234,4.575,8.272,0.308,13.134
			c-1.665-6.001-6.87-5.92-6.87-5.92L178.83,171.574z"/>
		<path style="fill:#FFC3BD;" d="M165.72,152.053c0.575,5.341,0.771,15.052-3.207,18.238c0,0,2.07,6.001,12.839,9.122
			c6.481-3.746,3.482-7.71,3.482-7.71c-5.735-1.905-5.208-6.237-3.835-10.229L165.72,152.053z"/>
		<path style="opacity:0.2;" d="M169.503,155.897l5.493,5.572c-0.328,0.945-0.603,1.907-0.754,2.854
			c-2.209-0.517-5.407-2.813-5.442-5.176C168.782,157.969,169.265,156.425,169.503,155.897z"/>
		<path style="fill:#263238;" d="M177.88,130.712c1.753-1.929,5.217,0.527,6.505,5.257c1.913,7.03-3.209,7.506-5.881,4.024
			C175.832,136.512,176.42,132.319,177.88,130.712z"/>
		<path style="fill:#263238;" d="M183.302,142.98c0,0,2.569,0.82,4.929,2.539C187.358,143.418,186.58,142.134,183.302,142.98z"/>
		<path style="fill:#263238;" d="M184.309,143.327c0,0,2.054-0.461,4.32-0.233C187.214,142.023,186.184,141.464,184.309,143.327z"/>
		<path style="fill:#FFC3BD;" d="M161.022,143.709c2.228,8.53,2.988,12.188,8.221,15.763c7.87,5.377,17.86,0.775,18.226-8.249
			c0.329-8.122-3.369-20.708-12.496-22.482C165.98,126.992,158.794,135.179,161.022,143.709z"/>
		<path style="fill:#FFFFFF;" d="M165.117,132.46l-2.469,2.865c-1.535,1.782-4.248,1.983-6.03,0.449v0
			c-1.782-1.535-1.983-4.248-0.448-6.03l2.469-2.865c1.535-1.782,4.249-1.983,6.03-0.448l0,0
			C166.45,127.965,166.652,130.679,165.117,132.46z"/>
		<path style="fill:#007F73;" d="M167.405,135.66l-3.042,1.501c-2.554,1.26-5.675,0.201-6.935-2.353l0,0
			c-1.26-2.554-0.201-5.675,2.353-6.935l3.042-1.501c2.554-1.26,5.675-0.201,6.935,2.353l0,0
			C171.018,131.279,169.959,134.4,167.405,135.66z"/>
		<path style="fill:#263238;" d="M163.556,150.094c0,0,6.168-1.416,3.546-10.423c-0.433-1.489,0.671-2.975,2.221-3.016
			c6.934-0.182,13.422-1.637,12.509-5.655c-1.155-5.083-18.443-9.028-21.582,1.167C154.122,133.611,153.889,145.688,163.556,150.094
			z"/>
		<path style="fill:#263238;" d="M163.593,148.311c0,0,2.57,0.82,4.928,2.539C167.649,148.749,166.872,147.465,163.593,148.311z"/>
		<path style="fill:#263238;" d="M164.601,148.657c0,0,2.054-0.461,4.32-0.233C167.505,147.353,166.475,146.795,164.601,148.657z"/>
		<path style="fill:#FFC3BD;" d="M159.605,150.41c0.839,1.624,2.349,2.709,3.788,3.141c2.163,0.651,3.29-1.273,2.726-3.338
			c-0.507-1.859-2.244-4.438-4.434-4.185C159.527,146.277,158.645,148.553,159.605,150.41z"/>
		<path style="fill:#263238;" d="M175.462,143.416c0.138,0.703,0.623,1.2,1.082,1.109c0.46-0.09,0.72-0.733,0.582-1.436
			c-0.138-0.703-0.623-1.2-1.082-1.109C175.585,142.07,175.324,142.713,175.462,143.416z"/>
		<path style="fill:#263238;" d="M183.409,141.854c0.138,0.703,0.623,1.2,1.082,1.109c0.46-0.09,0.72-0.734,0.582-1.437
			c-0.138-0.703-0.623-1.2-1.082-1.109C183.531,140.508,183.271,141.151,183.409,141.854z"/>
		<path style="fill:#263238;" d="M183.796,140.496l1.593-0.819C185.389,139.678,184.781,141.167,183.796,140.496z"/>
		<path style="fill:#ED847E;" d="M180.677,143.607c0,0,1.788,2.792,3.388,3.994c-0.758,1.049-2.414,0.963-2.414,0.963
			L180.677,143.607z"/>
		<path style="fill:#263238;" d="M178.401,151.915c-2.49,0-3.936-1.453-4.006-1.524c-0.067-0.069-0.066-0.18,0.003-0.247
			c0.068-0.067,0.179-0.066,0.247,0.003c0.019,0.019,1.908,1.904,5.001,1.295c0.099-0.021,0.187,0.044,0.205,0.137
			c0.019,0.095-0.043,0.187-0.138,0.205C179.25,151.876,178.811,151.915,178.401,151.915z"/>
		<path style="fill:#263238;" d="M170.689,140.69c-0.062,0-0.124-0.016-0.181-0.051c-0.165-0.1-0.218-0.315-0.118-0.48
			c1.184-1.96,3.088-2.046,3.168-2.048c0.204,0.008,0.353,0.144,0.36,0.336c0.008,0.193-0.143,0.355-0.335,0.363
			c-0.066,0.003-1.612,0.086-2.595,1.712C170.923,140.63,170.807,140.69,170.689,140.69z"/>
		<path style="fill:#263238;" d="M185.615,137.874c-0.058,0-0.116-0.014-0.17-0.045c-1.673-0.934-3.087-0.212-3.101-0.204
			c-0.172,0.09-0.383,0.024-0.472-0.147c-0.09-0.171-0.024-0.382,0.147-0.472c0.071-0.038,1.769-0.905,3.767,0.212
			c0.169,0.094,0.229,0.308,0.135,0.476C185.857,137.81,185.738,137.874,185.615,137.874z"/>
		<path style="fill:#FFC3BD;" d="M165.611,236.556l8.027,0.567l-3.625,8.546c0,0-6.681-2.114-6.953-7.003L165.611,236.556z"/>
		<polygon style="fill:#FFC3BD;" points="176.684,241.958 172.81,247.801 170.014,245.669 173.639,237.123 		"/>
		<path style="fill:#263238;" d="M175.849,142.059l1.593-0.819C177.442,141.24,176.835,142.729,175.849,142.059z"/>
	</g>
</g>
</svg>
